<svg width="20" height="20" viewBox="0 0 20 20" fill="none" xmlns="http://www.w3.org/2000/svg">
<path d="M3.27314 18.4163C3.1925 18.3957 3.11145 18.3763 3.03113 18.354C2.58135 18.2273 2.18834 17.9984 1.86363 17.6542C1.30345 17.0603 1.00201 16.3507 0.975957 15.5215C0.966523 15.21 1.00164 14.9037 1.07299 14.601C1.15595 14.2457 1.28562 13.91 1.45535 13.5893C1.72637 13.0777 2.07889 12.6327 2.49583 12.2391C2.81006 11.9424 3.15245 11.6842 3.51933 11.4601C3.86269 11.2502 4.18334 11.0078 4.48985 10.7452C4.87563 10.4141 5.23507 10.0541 5.59138 9.69077C5.90637 9.36948 6.21749 9.04511 6.54589 8.73886C6.79297 8.50771 7.04935 8.28847 7.3262 8.0958C7.67252 7.85519 8.04166 7.66513 8.45397 7.57313C8.76335 7.50398 9.07415 7.4939 9.3872 7.54353C9.74122 7.5989 10.0834 7.69761 10.4115 7.84569C10.9135 8.07282 11.3231 8.41709 11.6489 8.86935C11.8716 9.17986 12.0472 9.51736 12.2044 9.86584C12.3713 10.2353 12.5179 10.6135 12.6716 10.989C12.8451 11.4119 13.0272 11.8301 13.2418 12.2332C13.4555 12.635 13.7023 13.0146 13.9816 13.3716C14.3195 13.8034 14.6055 14.2677 14.8303 14.7718C15.0217 15.2038 15.1611 15.6517 15.2315 16.1212C15.2863 16.4869 15.2973 16.8527 15.2527 17.2207C15.1855 17.7797 15.0012 18.2925 14.6708 18.7465C14.3648 19.1673 13.9732 19.4788 13.5107 19.6989C13.1708 19.8606 12.816 19.9661 12.4407 19.9926C12.3078 20.0025 12.1744 20.0027 12.0415 19.992C12.023 19.9906 12.0049 19.9909 11.9869 19.9905C11.9681 19.9973 11.9504 19.9865 11.9321 19.9856C11.9169 19.985 11.9023 19.9752 11.8865 19.9823L11.5514 19.9218C11.5399 19.9095 11.5236 19.9137 11.5098 19.9093L11.4391 19.8965C11.155 19.8355 10.888 19.7241 10.6228 19.6084C10.1735 19.4115 9.73948 19.1809 9.29432 18.9748C8.93371 18.8082 8.56677 18.6595 8.18716 18.5441C7.92412 18.4639 7.65555 18.4118 7.38543 18.3728C7.16941 18.3414 6.95039 18.3369 6.73228 18.3392C6.3015 18.3445 5.87308 18.3859 5.44455 18.4267C4.99114 18.4705 4.53784 18.5137 4.08228 18.5081C3.89703 18.5054 3.71227 18.4984 3.52955 18.4635C3.49208 18.4563 3.45376 18.4553 3.41591 18.4475C3.36804 18.436 3.31886 18.4362 3.27314 18.4163ZM14.4021 1.21938C14.9919 1.4026 15.3981 1.8003 15.6644 2.35994C15.8469 2.74369 15.9327 3.15262 15.9565 3.57748C15.9763 3.94328 15.9453 4.30538 15.8717 4.66408C15.7364 5.32313 15.4765 5.92538 15.0935 6.47206C14.8282 6.8509 14.5134 7.1789 14.1387 7.4432C13.805 7.678 13.4438 7.84854 13.0437 7.92322C12.7628 7.97559 12.4831 7.97604 12.2049 7.90819C11.7233 7.79143 11.3444 7.5182 11.0569 7.10858C10.812 6.75904 10.6719 6.36461 10.6005 5.94305C10.5506 5.64826 10.5389 5.35155 10.5575 5.05365C10.5699 4.84942 10.5956 4.64736 10.6364 4.44802C10.7323 3.97737 10.8944 3.53153 11.1212 3.1112C11.3621 2.66365 11.663 2.26528 12.0382 1.92819C12.3539 1.64465 12.7044 1.42004 13.1029 1.27933C13.3957 1.17575 13.6966 1.12888 14.0067 1.14845C14.1768 1.16083 14.2439 1.1743 14.4021 1.21938ZM0.110079 6.10156C0.152049 5.91434 0.217032 5.73484 0.29679 5.56111C0.451368 5.22347 0.660128 4.928 0.946346 4.6944C1.2662 4.43376 1.63025 4.29351 2.03899 4.28421C2.37086 4.27699 2.68244 4.36208 2.97649 4.51664C3.3145 4.69462 3.59747 4.94457 3.83533 5.2464C4.2051 5.71399 4.43577 6.24885 4.55831 6.83539C4.62229 7.14249 4.64968 7.45346 4.64039 7.76732C4.63597 7.91965 4.62036 8.07092 4.59744 8.22157C4.55354 8.50752 4.47739 8.78288 4.36111 9.04623C4.20602 9.39759 3.99388 9.70459 3.69831 9.94675C3.35903 10.2246 2.97144 10.3656 2.53701 10.3598C2.21824 10.3555 1.91955 10.2656 1.63839 10.1129C1.26048 9.90679 0.956407 9.61516 0.704909 9.26324C0.459441 8.92075 0.282718 8.54256 0.164196 8.13607C0.0480386 7.73739 -0.00915713 7.32888 0.00119346 6.91185C0.00321539 6.83815 0.00703632 6.76477 0.00991795 6.69147C0.00814346 6.65733 0.0168321 6.62437 0.0147929 6.59042C0.013541 6.57614 0.0177915 6.56358 0.0195423 6.54936C0.0200509 6.5316 0.0308773 6.5145 0.0235155 6.49531L0.0688435 6.23201C0.0889442 6.21087 0.085686 6.18265 0.0918984 6.15734C0.0965478 6.13842 0.0953248 6.11724 0.110079 6.10156ZM4.78507 2.6623C4.87708 2.13999 5.03064 1.68166 5.27895 1.25879C5.4664 0.938989 5.69669 0.657175 5.98872 0.431523C6.30335 0.187802 6.65347 0.0355112 7.04931 0.00554997C7.44522 -0.0248732 7.81275 0.0705578 8.15541 0.272713C8.4572 0.451053 8.7059 0.691251 8.91457 0.975422C9.24788 1.42856 9.45426 1.94023 9.56897 2.49273C9.64181 2.84405 9.67249 3.19919 9.66315 3.55783C9.65782 3.76119 9.64006 3.96399 9.60948 4.16589C9.57017 4.4198 9.51124 4.66921 9.42752 4.91177C9.25307 5.41872 8.99686 5.87398 8.6152 6.24849C8.37792 6.48069 8.10766 6.65932 7.79517 6.76672C7.446 6.88656 7.09211 6.89909 6.73613 6.80527C6.41427 6.72071 6.13224 6.55689 5.88103 6.33529C5.55328 6.04652 5.30859 5.69274 5.12275 5.29481C4.90245 4.82231 4.7813 4.32199 4.73987 3.80034C4.71711 3.51498 4.72035 3.22955 4.74854 2.94458C4.75861 2.83756 4.76993 2.73006 4.78507 2.6623ZM19.1258 9.85002L19.1153 9.91076C19.0061 10.4107 18.7931 10.8614 18.5032 11.2755C18.2753 11.5999 18.0067 11.8846 17.6939 12.1234C17.2923 12.4305 16.8505 12.6467 16.3542 12.7347C16.0569 12.7875 15.7603 12.7863 15.4657 12.7157C15.031 12.611 14.6757 12.3782 14.4062 12.0124C14.1837 11.71 14.062 11.3655 14.0119 10.9936C13.9666 10.6601 13.9824 10.3276 14.0495 9.99822C14.1967 9.27392 14.5348 8.65246 15.0275 8.11677C15.1939 7.93535 15.3769 7.77312 15.5754 7.63036C15.9835 7.33802 16.4271 7.13666 16.9235 7.06675C17.2057 7.02769 17.4855 7.03704 17.7614 7.10996C18.1828 7.22108 18.5268 7.45443 18.7873 7.81368C19.0222 8.13784 19.142 8.50741 19.1843 8.90561C19.2076 9.12559 19.2054 9.34595 19.1748 9.56547L19.1642 9.62668C19.1492 9.70064 19.1366 9.77505 19.1258 9.85002Z" fill="#141414"/>
</svg>
